<?xml version="1.0" encoding="UTF-8" standalone="no"?><svg xmlns="http://www.w3.org/2000/svg" xmlns:xlink="http://www.w3.org/1999/xlink" contentScriptType="application/ecmascript" contentStyleType="text/css" height="239px" preserveAspectRatio="none" style="width:913px;height:239px;background:#FFFFFF;" version="1.1" viewBox="0 0 913 239" width="913px" zoomAndPan="magnify"><defs><filter height="300%" id="f1o9r49vcowoj5" width="300%" x="-1" y="-1"><feGaussianBlur result="blurOut" stdDeviation="2.0"/><feColorMatrix in="blurOut" result="blurOut2" type="matrix" values="0 0 0 0 0 0 0 0 0 0 0 0 0 0 0 0 0 0 .4 0"/><feOffset dx="4.0" dy="4.0" in="blurOut2" result="blurOut3"/><feBlend in="SourceGraphic" in2="blurOut3" mode="normal"/></filter></defs><g><text fill="#000000" font-family="sans-serif" font-size="18" lengthAdjust="spacing" textLength="172" x="364" y="18.6855">Diagramme de classe</text><!--MD5=[f8e7078f77c005d15b486c0c98deb1e6]
class Action--><rect codeLine="3" fill="#FEFECE" filter="url(#f1o9r49vcowoj5)" height="117.1797" id="Action" style="stroke:#A80036;stroke-width:1.5;" width="75" x="704.5" y="94.8806"/><ellipse cx="724" cy="110.8806" fill="#EB937F" rx="11" ry="11" style="stroke:#A80036;stroke-width:1.0;"/><path d="M722.8594,111.6775 L722.8594,114.1775 L727.1875,114.1775 L727.1875,113.2556 Q727.1875,112.6463 727.4297,112.3806 Q727.6719,112.115 728.0469,112.115 Q728.4219,112.115 728.6563,112.3806 Q728.8906,112.6463 728.8906,113.2556 L728.8906,115.8806 L720.8906,115.8806 Q720.2656,115.8806 720.0078,115.6463 Q719.75,115.4119 719.75,115.0213 Q719.75,114.6463 720.0156,114.4119 Q720.2813,114.1775 720.8906,114.1775 L721.1563,114.1775 L721.1563,107.5213 L720.8906,107.5213 Q720.2656,107.5213 720.0078,107.2869 Q719.75,107.0525 719.75,106.6619 Q719.75,106.2869 720.0078,106.0525 Q720.2656,105.8181 720.8906,105.8181 L728.5156,105.8181 L728.5156,108.4119 Q728.5156,109.0213 728.2891,109.2791 Q728.0625,109.5369 727.6719,109.5369 Q727.2969,109.5369 727.0625,109.2791 Q726.8281,109.0213 726.8281,108.4119 L726.8281,107.5213 L722.8594,107.5213 L722.8594,109.9744 L724.3438,109.9744 Q724.3438,109.3181 724.4688,109.1306 Q724.7344,108.7244 725.2031,108.7244 Q725.5781,108.7244 725.8125,108.9822 Q726.0469,109.24 726.0469,109.8494 L726.0469,111.8181 Q726.0469,112.365 725.9219,112.5525 Q725.6563,112.9431 725.2031,112.9431 Q724.7344,112.9431 724.4688,112.5369 Q724.3438,112.3494 724.3438,111.6775 L722.8594,111.6775 Z " fill="#000000"/><text fill="#000000" font-family="sans-serif" font-size="12" lengthAdjust="spacing" textLength="33" x="739" y="115.7908">Action</text><line style="stroke:#A80036;stroke-width:1.5;" x1="705.5" x2="778.5" y1="126.8806" y2="126.8806"/><text fill="#000000" font-family="sans-serif" font-size="11" lengthAdjust="spacing" textLength="45" x="710.5" y="142.2996">MONTER,</text><text fill="#000000" font-family="sans-serif" font-size="11" lengthAdjust="spacing" textLength="46" x="710.5" y="156.1355">GAUCHE,</text><text fill="#000000" font-family="sans-serif" font-size="11" lengthAdjust="spacing" textLength="39" x="710.5" y="169.9714">DROITE,</text><text fill="#000000" font-family="sans-serif" font-size="11" lengthAdjust="spacing" textLength="63" x="710.5" y="183.8074">DESCENDRE,</text><text fill="#000000" font-family="sans-serif" font-size="11" lengthAdjust="spacing" textLength="39" x="710.5" y="197.6433">AUCUN,</text><line style="stroke:#A80036;stroke-width:1.5;" x1="705.5" x2="778.5" y1="204.0603" y2="204.0603"/><!--MD5=[0727c6d39e0a66367ffb8523e06db798]
class AireDeCheu--><rect codeLine="11" fill="#FEFECE" filter="url(#f1o9r49vcowoj5)" height="103.3438" id="AireDeCheu" style="stroke:#A80036;stroke-width:1.5;" width="150" x="7" y="101.8806"/><ellipse cx="44.95" cy="117.8806" fill="#ADD1B2" rx="11" ry="11" style="stroke:#A80036;stroke-width:1.0;"/><path d="M47.7156,113.7556 Q47.8719,113.5369 48.0594,113.4275 Q48.2469,113.3181 48.4656,113.3181 Q48.8406,113.3181 49.075,113.5759 Q49.3094,113.8338 49.3094,114.4431 L49.3094,115.8963 Q49.3094,116.5056 49.075,116.7713 Q48.8406,117.0369 48.4656,117.0369 Q48.1219,117.0369 47.9188,116.8338 Q47.7156,116.6463 47.6063,116.1306 Q47.5594,115.7713 47.3719,115.5838 Q47.0438,115.2088 46.4344,114.99 Q45.825,114.7713 45.2,114.7713 Q44.4344,114.7713 43.8016,115.0994 Q43.1688,115.4275 42.6766,116.1775 Q42.1844,116.9275 42.1844,117.9588 L42.1844,119.0525 Q42.1844,120.2869 43.075,121.1072 Q43.9656,121.9275 45.5594,121.9275 Q46.4969,121.9275 47.1531,121.6775 Q47.5438,121.5213 47.9656,121.0838 Q48.2313,120.8181 48.3797,120.74 Q48.5281,120.6619 48.7313,120.6619 Q49.0594,120.6619 49.3172,120.9197 Q49.575,121.1775 49.575,121.5213 Q49.575,121.865 49.2313,122.2713 Q48.7313,122.8494 47.9344,123.1775 Q46.8563,123.6306 45.5594,123.6306 Q44.0438,123.6306 42.8406,123.0056 Q41.8563,122.5056 41.1688,121.4353 Q40.4813,120.365 40.4813,119.0838 L40.4813,117.9275 Q40.4813,116.5994 41.0984,115.4509 Q41.7156,114.3025 42.8094,113.6853 Q43.9031,113.0681 45.1375,113.0681 Q45.8719,113.0681 46.5203,113.2322 Q47.1688,113.3963 47.7156,113.7556 Z " fill="#000000"/><text fill="#000000" font-family="sans-serif" font-size="12" lengthAdjust="spacing" textLength="67" x="64.05" y="122.7908">AireDeCheu</text><line style="stroke:#A80036;stroke-width:1.5;" x1="8" x2="156" y1="133.8806" y2="133.8806"/><ellipse cx="18" cy="144.8806" rx="3" ry="3" style="stroke:#038048;stroke-width:1.0;fill:none;"/><text fill="#000000" font-family="sans-serif" font-size="11" lengthAdjust="spacing" textLength="82" x="27" y="149.2996">nombreLigne : int</text><ellipse cx="18" cy="158.7166" rx="3" ry="3" style="stroke:#038048;stroke-width:1.0;fill:none;"/><text fill="#000000" font-family="sans-serif" font-size="11" lengthAdjust="spacing" textLength="92" x="27" y="163.1355">nombreColonne :int</text><line style="stroke:#A80036;stroke-width:1.5;" x1="8" x2="156" y1="169.5525" y2="169.5525"/><ellipse cx="18" cy="180.5525" fill="#84BE84" rx="3" ry="3" style="stroke:#038048;stroke-width:1.0;"/><text fill="#000000" font-family="sans-serif" font-size="11" lengthAdjust="spacing" textLength="124" x="27" y="184.9714">getNombreDeCellule() : int</text><ellipse cx="18" cy="194.3884" fill="#84BE84" rx="3" ry="3" style="stroke:#038048;stroke-width:1.0;"/><text fill="#000000" font-family="sans-serif" font-size="11" lengthAdjust="spacing" textLength="79" x="27" y="198.8074">centre() : Cellule</text><!--MD5=[5a914b73609f412641820e1f6a352f08]
class Cellule--><rect codeLine="18" fill="#FEFECE" filter="url(#f1o9r49vcowoj5)" height="75.6719" id="Cellule" style="stroke:#A80036;stroke-width:1.5;" width="84" x="815" y="115.3806"/><ellipse cx="835.85" cy="131.3806" fill="#ADD1B2" rx="11" ry="11" style="stroke:#A80036;stroke-width:1.0;"/><path d="M838.6156,127.2556 Q838.7719,127.0369 838.9594,126.9275 Q839.1469,126.8181 839.3656,126.8181 Q839.7406,126.8181 839.975,127.0759 Q840.2094,127.3338 840.2094,127.9431 L840.2094,129.3963 Q840.2094,130.0056 839.975,130.2713 Q839.7406,130.5369 839.3656,130.5369 Q839.0219,130.5369 838.8188,130.3338 Q838.6156,130.1463 838.5063,129.6306 Q838.4594,129.2713 838.2719,129.0838 Q837.9438,128.7088 837.3344,128.49 Q836.725,128.2713 836.1,128.2713 Q835.3344,128.2713 834.7016,128.5994 Q834.0688,128.9275 833.5766,129.6775 Q833.0844,130.4275 833.0844,131.4588 L833.0844,132.5525 Q833.0844,133.7869 833.975,134.6072 Q834.8656,135.4275 836.4594,135.4275 Q837.3969,135.4275 838.0531,135.1775 Q838.4438,135.0213 838.8656,134.5838 Q839.1313,134.3181 839.2797,134.24 Q839.4281,134.1619 839.6313,134.1619 Q839.9594,134.1619 840.2172,134.4197 Q840.475,134.6775 840.475,135.0213 Q840.475,135.365 840.1313,135.7713 Q839.6313,136.3494 838.8344,136.6775 Q837.7563,137.1306 836.4594,137.1306 Q834.9438,137.1306 833.7406,136.5056 Q832.7563,136.0056 832.0688,134.9353 Q831.3813,133.865 831.3813,132.5838 L831.3813,131.4275 Q831.3813,130.0994 831.9984,128.9509 Q832.6156,127.8025 833.7094,127.1853 Q834.8031,126.5681 836.0375,126.5681 Q836.7719,126.5681 837.4203,126.7322 Q838.0688,126.8963 838.6156,127.2556 Z " fill="#000000"/><text fill="#000000" font-family="sans-serif" font-size="12" lengthAdjust="spacing" textLength="39" x="851.15" y="136.2908">Cellule</text><line style="stroke:#A80036;stroke-width:1.5;" x1="816" x2="898" y1="147.3806" y2="147.3806"/><ellipse cx="826" cy="158.3806" rx="3" ry="3" style="stroke:#038048;stroke-width:1.0;fill:none;"/><text fill="#000000" font-family="sans-serif" font-size="11" lengthAdjust="spacing" textLength="42" x="835" y="162.7996">ligne : int</text><ellipse cx="826" cy="172.2166" rx="3" ry="3" style="stroke:#038048;stroke-width:1.0;fill:none;"/><text fill="#000000" font-family="sans-serif" font-size="11" lengthAdjust="spacing" textLength="58" x="835" y="176.6355">colonne : int</text><line style="stroke:#A80036;stroke-width:1.5;" x1="816" x2="898" y1="183.0525" y2="183.0525"/><!--MD5=[a13b29b436488db240599346aff8582a]
class Partie--><rect codeLine="22" fill="#FEFECE" filter="url(#f1o9r49vcowoj5)" height="144.8516" id="Partie" style="stroke:#A80036;stroke-width:1.5;" width="115" x="554.5" y="80.8806"/><ellipse cx="592.45" cy="96.8806" fill="#ADD1B2" rx="11" ry="11" style="stroke:#A80036;stroke-width:1.0;"/><path d="M595.2156,92.7556 Q595.3719,92.5369 595.5594,92.4275 Q595.7469,92.3181 595.9656,92.3181 Q596.3406,92.3181 596.575,92.5759 Q596.8094,92.8338 596.8094,93.4431 L596.8094,94.8963 Q596.8094,95.5056 596.575,95.7713 Q596.3406,96.0369 595.9656,96.0369 Q595.6219,96.0369 595.4188,95.8338 Q595.2156,95.6463 595.1063,95.1306 Q595.0594,94.7713 594.8719,94.5838 Q594.5438,94.2088 593.9344,93.99 Q593.325,93.7713 592.7,93.7713 Q591.9344,93.7713 591.3016,94.0994 Q590.6688,94.4275 590.1766,95.1775 Q589.6844,95.9275 589.6844,96.9588 L589.6844,98.0525 Q589.6844,99.2869 590.575,100.1072 Q591.4656,100.9275 593.0594,100.9275 Q593.9969,100.9275 594.6531,100.6775 Q595.0438,100.5213 595.4656,100.0838 Q595.7313,99.8181 595.8797,99.74 Q596.0281,99.6619 596.2313,99.6619 Q596.5594,99.6619 596.8172,99.9197 Q597.075,100.1775 597.075,100.5213 Q597.075,100.865 596.7313,101.2713 Q596.2313,101.8494 595.4344,102.1775 Q594.3563,102.6306 593.0594,102.6306 Q591.5438,102.6306 590.3406,102.0056 Q589.3563,101.5056 588.6688,100.4353 Q587.9813,99.365 587.9813,98.0838 L587.9813,96.9275 Q587.9813,95.5994 588.5984,94.4509 Q589.2156,93.3025 590.3094,92.6853 Q591.4031,92.0681 592.6375,92.0681 Q593.3719,92.0681 594.0203,92.2322 Q594.6688,92.3963 595.2156,92.7556 Z " fill="#000000"/><text fill="#000000" font-family="sans-serif" font-size="12" lengthAdjust="spacing" textLength="32" x="611.55" y="101.7908">Partie</text><line style="stroke:#A80036;stroke-width:1.5;" x1="555.5" x2="668.5" y1="112.8806" y2="112.8806"/><text fill="#000000" font-family="sans-serif" font-size="11" lengthAdjust="spacing" textLength="82" x="560.5" y="128.2996">morceau : Cellule</text><text fill="#000000" font-family="sans-serif" font-size="11" lengthAdjust="spacing" textLength="69" x="560.5" y="142.1355">action : Action</text><line style="stroke:#A80036;stroke-width:1.5;" x1="555.5" x2="668.5" y1="148.5525" y2="148.5525"/><text fill="#000000" font-family="sans-serif" font-size="11" lengthAdjust="spacing" textLength="64" x="560.5" y="163.9714">allerADroite()</text><text fill="#000000" font-family="sans-serif" font-size="11" lengthAdjust="spacing" textLength="103" x="560.5" y="177.8074">allerAGauche() : void</text><text fill="#000000" font-family="sans-serif" font-size="11" lengthAdjust="spacing" textLength="70" x="560.5" y="191.6433">monter() : void</text><text fill="#000000" font-family="sans-serif" font-size="11" lengthAdjust="spacing" textLength="89" x="560.5" y="205.4793">descendre() : void</text><text fill="#000000" font-family="sans-serif" font-size="11" lengthAdjust="spacing" textLength="71" x="560.5" y="219.3152">bouger() : void</text><!--MD5=[9170a0bd689e7bb8cf659ef5ec29e751]
class Serpent--><rect codeLine="33" fill="#FEFECE" filter="url(#f1o9r49vcowoj5)" height="144.8516" id="Serpent" style="stroke:#A80036;stroke-width:1.5;" width="154" x="365" y="80.8806"/><ellipse cx="416.25" cy="96.8806" fill="#ADD1B2" rx="11" ry="11" style="stroke:#A80036;stroke-width:1.0;"/><path d="M419.0156,92.7556 Q419.1719,92.5369 419.3594,92.4275 Q419.5469,92.3181 419.7656,92.3181 Q420.1406,92.3181 420.375,92.5759 Q420.6094,92.8338 420.6094,93.4431 L420.6094,94.8963 Q420.6094,95.5056 420.375,95.7713 Q420.1406,96.0369 419.7656,96.0369 Q419.4219,96.0369 419.2188,95.8338 Q419.0156,95.6463 418.9063,95.1306 Q418.8594,94.7713 418.6719,94.5838 Q418.3438,94.2088 417.7344,93.99 Q417.125,93.7713 416.5,93.7713 Q415.7344,93.7713 415.1016,94.0994 Q414.4688,94.4275 413.9766,95.1775 Q413.4844,95.9275 413.4844,96.9588 L413.4844,98.0525 Q413.4844,99.2869 414.375,100.1072 Q415.2656,100.9275 416.8594,100.9275 Q417.7969,100.9275 418.4531,100.6775 Q418.8438,100.5213 419.2656,100.0838 Q419.5313,99.8181 419.6797,99.74 Q419.8281,99.6619 420.0313,99.6619 Q420.3594,99.6619 420.6172,99.9197 Q420.875,100.1775 420.875,100.5213 Q420.875,100.865 420.5313,101.2713 Q420.0313,101.8494 419.2344,102.1775 Q418.1563,102.6306 416.8594,102.6306 Q415.3438,102.6306 414.1406,102.0056 Q413.1563,101.5056 412.4688,100.4353 Q411.7813,99.365 411.7813,98.0838 L411.7813,96.9275 Q411.7813,95.5994 412.3984,94.4509 Q413.0156,93.3025 414.1094,92.6853 Q415.2031,92.0681 416.4375,92.0681 Q417.1719,92.0681 417.8203,92.2322 Q418.4688,92.3963 419.0156,92.7556 Z " fill="#000000"/><text fill="#000000" font-family="sans-serif" font-size="12" lengthAdjust="spacing" textLength="43" x="436.75" y="101.7908">Serpent</text><line style="stroke:#A80036;stroke-width:1.5;" x1="366" x2="518" y1="112.8806" y2="112.8806"/><line style="stroke:#A80036;stroke-width:1.5;" x1="366" x2="518" y1="120.8806" y2="120.8806"/><text fill="#000000" font-family="sans-serif" font-size="11" lengthAdjust="spacing" textLength="49" x="371" y="136.2996">taille() : int</text><text fill="#000000" font-family="sans-serif" font-size="11" lengthAdjust="spacing" textLength="142" x="371" y="150.1355">deplacer(Action action) : void</text><text fill="#000000" font-family="sans-serif" font-size="11" lengthAdjust="spacing" textLength="64" x="371" y="163.9714">allerADroite()</text><text fill="#000000" font-family="sans-serif" font-size="11" lengthAdjust="spacing" textLength="103" x="371" y="177.8074">allerAGauche() : void</text><text fill="#000000" font-family="sans-serif" font-size="11" lengthAdjust="spacing" textLength="70" x="371" y="191.6433">monter() : void</text><text fill="#000000" font-family="sans-serif" font-size="11" lengthAdjust="spacing" textLength="89" x="371" y="205.4793">descendre() : void</text><text fill="#000000" font-family="sans-serif" font-size="11" lengthAdjust="spacing" textLength="112" x="371" y="219.3152">afficherCorps() : String</text><!--MD5=[c78e00e9c850c17861f994bff36b332e]
class Viande--><rect codeLine="42" fill="#FEFECE" filter="url(#f1o9r49vcowoj5)" height="61.8359" id="Viande" style="stroke:#A80036;stroke-width:1.5;" width="137" x="192.5" y="122.3806"/><ellipse cx="237.75" cy="138.3806" fill="#ADD1B2" rx="11" ry="11" style="stroke:#A80036;stroke-width:1.0;"/><path d="M240.5156,134.2556 Q240.6719,134.0369 240.8594,133.9275 Q241.0469,133.8181 241.2656,133.8181 Q241.6406,133.8181 241.875,134.0759 Q242.1094,134.3338 242.1094,134.9431 L242.1094,136.3963 Q242.1094,137.0056 241.875,137.2713 Q241.6406,137.5369 241.2656,137.5369 Q240.9219,137.5369 240.7188,137.3338 Q240.5156,137.1463 240.4063,136.6306 Q240.3594,136.2713 240.1719,136.0838 Q239.8438,135.7088 239.2344,135.49 Q238.625,135.2713 238,135.2713 Q237.2344,135.2713 236.6016,135.5994 Q235.9688,135.9275 235.4766,136.6775 Q234.9844,137.4275 234.9844,138.4588 L234.9844,139.5525 Q234.9844,140.7869 235.875,141.6072 Q236.7656,142.4275 238.3594,142.4275 Q239.2969,142.4275 239.9531,142.1775 Q240.3438,142.0213 240.7656,141.5838 Q241.0313,141.3181 241.1797,141.24 Q241.3281,141.1619 241.5313,141.1619 Q241.8594,141.1619 242.1172,141.4197 Q242.375,141.6775 242.375,142.0213 Q242.375,142.365 242.0313,142.7713 Q241.5313,143.3494 240.7344,143.6775 Q239.6563,144.1306 238.3594,144.1306 Q236.8438,144.1306 235.6406,143.5056 Q234.6563,143.0056 233.9688,141.9353 Q233.2813,140.865 233.2813,139.5838 L233.2813,138.4275 Q233.2813,137.0994 233.8984,135.9509 Q234.5156,134.8025 235.6094,134.1853 Q236.7031,133.5681 237.9375,133.5681 Q238.6719,133.5681 239.3203,133.7322 Q239.9688,133.8963 240.5156,134.2556 Z " fill="#000000"/><text fill="#000000" font-family="sans-serif" font-size="12" lengthAdjust="spacing" textLength="38" x="258.25" y="143.2908">Viande</text><line style="stroke:#A80036;stroke-width:1.5;" x1="193.5" x2="328.5" y1="154.3806" y2="154.3806"/><line style="stroke:#A80036;stroke-width:1.5;" x1="193.5" x2="328.5" y1="162.3806" y2="162.3806"/><text fill="#000000" font-family="sans-serif" font-size="11" lengthAdjust="spacing" textLength="125" x="198.5" y="177.7996">nouvellePosition() : Cellule</text><!--MD5=[b6ace8a3992244c913156a65850a249f]
reverse link Serpent to Partie--><path codeLine="46" d="M532.24,153.3806 C539.58,153.3806 546.92,153.3806 554.26,153.3806 " fill="none" id="Serpent-backto-Partie" style="stroke:#A80036;stroke-width:1.0;"/><polygon fill="#A80036" points="519.03,153.3806,525.03,157.3806,531.03,153.3806,525.03,149.3806,519.03,153.3806" style="stroke:#A80036;stroke-width:1.0;"/><text fill="#000000" font-family="sans-serif" font-size="13" lengthAdjust="spacing" textLength="5" x="541.5418" y="149.8828">*</text><!--MD5=[43f668a843d608815e4c4ff8058189fd]
link Partie to Cellule--><path codeLine="47" d="M662.99,80.7306 C675.11,68.6006 689.06,57.7406 704.5,50.8806 C734.96,37.3406 749.66,36.0306 779.5,50.8806 C806.46,64.3006 826.54,92.0706 839.5,115.3206 " fill="none" id="Partie-Cellule" style="stroke:#A80036;stroke-width:1.0;"/><!--MD5=[10e08633e87920c69be9e9152de7997f]
link Partie to Action--><path codeLine="48" d="M669.64,153.3806 C681.23,153.3806 692.82,153.3806 704.41,153.3806 " fill="none" id="Partie-Action" style="stroke:#A80036;stroke-width:1.0;"/><text fill="#000000" font-family="sans-serif" font-size="13" lengthAdjust="spacing" textLength="7" x="689.5772" y="149.3671">1</text><!--MD5=[29fda428cfcd7706e103439763b02bd1]
link AireDeCheu to Serpent--><path codeLine="49" d="M122.68,101.6506 C141.54,81.8006 165.71,61.3906 192.5,50.8806 C249.18,28.6406 272.72,28.8906 329.5,50.8806 C346.99,57.6506 363.44,68.5606 378.07,80.7706 " fill="none" id="AireDeCheu-Serpent" style="stroke:#A80036;stroke-width:1.0;"/><text fill="#000000" font-family="sans-serif" font-size="13" lengthAdjust="spacing" textLength="7" x="364.1163" y="69.9786">1</text><!--MD5=[00a8d9d48ff8164247b1467525835b6a]
link AireDeCheu to Viande--><path codeLine="50" d="M157.17,153.3806 C168.93,153.3806 180.69,153.3806 192.45,153.3806 " fill="none" id="AireDeCheu-Viande" style="stroke:#A80036;stroke-width:1.0;"/><!--MD5=[2d7e2b80d058c5c3092a246a812ac49f]
@startuml
title Diagramme de classe

enum Action{
    MONTER,
    GAUCHE,
    DROITE,
    DESCENDRE,
    AUCUN,
}

class AireDeCheu{
    +nombreLigne : int
    +nombreColonne :int
    +getNombreDeCellule() : int
    +centre() : Cellule

}
class Cellule{
    + ligne : int
    + colonne : int
}
class Partie{
    morceau : Cellule
    action : Action
    allerADroite()
    allerAGauche() : void
    monter() : void
    descendre() : void
    bouger() : void

}

class Serpent{
    taille() : int
    deplacer(Action action) : void
    allerADroite()
    allerAGauche() : void
    monter() : void
    descendre() : void
    afficherCorps() : String
}
class Viande{
    nouvellePosition() : Cellule
}

Serpent *- "*" Partie
Partie - Cellule
Partie - "1" Action
AireDeCheu - "1" Serpent
AireDeCheu - Viande
@enduml

PlantUML version 1.2021.7(Sun May 23 08:40:07 EDT 2021)
(GPL source distribution)
Java Runtime: Java(TM) SE Runtime Environment
JVM: Java HotSpot(TM) 64-Bit Server VM
Default Encoding: Cp1252
Language: fr
Country: CA
--></g></svg>